<?xml version="1.0" encoding="UTF-8" standalone="no"?> <svg width="64" height="64" viewBox="0 0 64 64" fill="none" xmlns="http://www.w3.org/2000/svg">
<path d="M59 29C60.1046 29 61 28.1046 61 27C61 25.8954 60.1046 25 59 25C57.8954 25 57 25.8954 57 27C57 28.1046 57.8954 29 59 29Z" fill="#BDDBFF"/>
<path d="M55 58.91V61H9V58.91C8.9993 56.0125 9.8972 53.1861 11.57 50.8202C13.2427 48.4543 15.6081 46.6654 18.34 45.7L22.15 44.36C22.95 48.13 27.06 51 32 51C36.94 51 41.05 48.13 41.85 44.36L45.66 45.7C48.3919 46.6654 50.7573 48.4543 52.43 50.8202C54.1028 53.1861 55.0007 56.0125 55 58.91V58.91Z" fill="#BDDBFF"/>
<path d="M45 16V19C43.9391 19 42.9217 18.5786 42.1716 17.8284C41.4214 17.0783 41 16.0609 41 15V13.3C42.58 13.67 43.38 14.3 44.93 14.68C44.9788 15.1183 45.0021 15.559 45 16V16Z" fill="#BDDBFF"/>
<path d="M44.93 14.68C43.38 14.3 42.58 13.67 41 13.3C40.0153 13.0825 39.0083 12.9818 38 13C32.67 13 32.33 15 27 15C25.6491 15.0232 24.3019 14.8514 23 14.49C21.7 14.13 20.7 13.65 19.27 13.34C19.9034 10.3016 21.6029 7.59002 24.0613 5.69553C26.5198 3.80103 29.5749 2.84862 32.6744 3.01048C35.7739 3.17234 38.7132 4.43779 40.961 6.57805C43.2087 8.71831 44.6166 11.5921 44.93 14.68V14.68Z" fill="#BDDBFF"/>
<path d="M38 43L41.85 44.36C41.05 48.13 36.94 51 32 51C27.06 51 22.95 48.13 22.15 44.36L26 43C26 45.21 28.69 47 32 47C35.31 47 38 45.21 38 43Z" fill="#BDDBFF"/>
<path d="M23 14.49V15C23 16.0609 22.5786 17.0783 21.8284 17.8284C21.0783 18.5786 20.0609 19 19 19V16C18.9982 15.1064 19.0886 14.215 19.27 13.34C20.7 13.65 21.7 14.13 23 14.49Z" fill="#BDDBFF"/>
<path d="M5 29C6.10457 29 7 28.1046 7 27C7 25.8954 6.10457 25 5 25C3.89543 25 3 25.8954 3 27C3 28.1046 3.89543 29 5 29Z" fill="#BDDBFF"/>
<path d="M45.99 44.76L39 42.29V38.11C41.1262 36.8825 42.8921 35.1174 44.1208 32.9919C45.3494 30.8663 45.9975 28.4551 46 26H47C48.0609 26 49.0783 25.5786 49.8284 24.8284C50.5786 24.0783 51 23.0609 51 22C51 20.9391 50.5786 19.9217 49.8284 19.1716C49.0783 18.4214 48.0609 18 47 18H46V16C46 12.287 44.525 8.72601 41.8995 6.1005C39.274 3.475 35.713 2 32 2C28.287 2 24.726 3.475 22.1005 6.1005C19.475 8.72601 18 12.287 18 16V18H17C15.9391 18 14.9217 18.4214 14.1716 19.1716C13.4214 19.9217 13 20.9391 13 22C13 23.0609 13.4214 24.0783 14.1716 24.8284C14.9217 25.5786 15.9391 26 17 26H18C18.0025 28.4551 18.6506 30.8663 19.8792 32.9919C21.1079 35.1174 22.8738 36.8825 25 38.11V42.29L18.01 44.76C15.0841 45.7954 12.5507 47.7118 10.7582 50.2456C8.96574 52.7794 8.00217 55.8063 8 58.91V61C8 61.2652 8.10536 61.5196 8.29289 61.7071C8.48043 61.8946 8.73478 62 9 62H55C55.2652 62 55.5196 61.8946 55.7071 61.7071C55.8946 61.5196 56 61.2652 56 61V58.91C55.9978 55.8063 55.0343 52.7794 53.2418 50.2456C51.4493 47.7118 48.9159 45.7954 45.99 44.76V44.76ZM46 20H47C47.5304 20 48.0391 20.2107 48.4142 20.5858C48.7893 20.9609 49 21.4696 49 22C49 22.5304 48.7893 23.0391 48.4142 23.4142C48.0391 23.7893 47.5304 24 47 24H46V20ZM18 24H17C16.4696 24 15.9609 23.7893 15.5858 23.4142C15.2107 23.0391 15 22.5304 15 22C15 21.4696 15.2107 20.9609 15.5858 20.5858C15.9609 20.2107 16.4696 20 17 20H18V24ZM44 16V17.82C43.4173 17.6124 42.9126 17.2304 42.5548 16.7258C42.1969 16.2212 42.0032 15.6186 42 15V14.67C42.21 14.75 42.41 14.83 42.61 14.92C43.03 15.1 43.47 15.28 43.97 15.44C43.98 15.63 44 15.81 44 16ZM32 4C34.6907 4.00508 37.3018 4.91373 39.4144 6.58021C41.5269 8.24668 43.0186 10.5744 43.65 13.19C43.57 13.15 43.48 13.12 43.4 13.08C41.711 12.2972 39.8601 11.9271 38 12C36.006 11.9682 34.0252 12.3283 32.17 13.06C30.5244 13.7072 28.7681 14.0265 27 14C25.2391 14.0294 23.4894 13.7135 21.85 13.07C21.42 12.92 20.97 12.77 20.49 12.62C21.2234 10.1347 22.7402 7.95288 24.8142 6.39957C26.8883 4.84626 29.4088 4.0046 32 4V4ZM20 16C20.0044 15.5287 20.0345 15.058 20.09 14.59C20.46 14.71 20.83 14.83 21.19 14.96C21.45 15.05 21.71 15.14 21.98 15.22C21.9366 15.7984 21.7265 16.3518 21.3751 16.8133C21.0237 17.2747 20.5461 17.6244 20 17.82V16ZM20 26V19.9C21.0026 19.6897 21.9167 19.1772 22.6194 18.4317C23.322 17.6862 23.7794 16.7433 23.93 15.73C24.9423 15.918 25.9704 16.0084 27 16C28.994 16.0318 30.9748 15.6717 32.83 14.94C34.4756 14.2928 36.2319 13.9735 38 14C38.6689 13.995 39.3374 14.0384 40 14.13V15C40.0029 16.1518 40.4021 17.2675 41.1305 18.1598C41.8589 19.0521 42.8721 19.6665 44 19.9V26C44 29.1826 42.7357 32.2348 40.4853 34.4853C38.2348 36.7357 35.1826 38 32 38C28.8174 38 25.7652 36.7357 23.5147 34.4853C21.2643 32.2348 20 29.1826 20 26V26ZM37 39.06V43C37 44.63 34.71 46 32 46C29.29 46 27 44.63 27 43V39.06C30.2155 40.3133 33.7845 40.3133 37 39.06ZM25.25 44.33C26.04 46.46 28.72 48 32 48C35.28 48 37.96 46.46 38.75 44.33L40.62 44.98C39.5 47.89 35.98 50 32 50C28.02 50 24.5 47.89 23.38 44.98L25.25 44.33ZM54 60H10V58.91C10.005 56.2208 10.8406 53.5987 12.3925 51.4024C13.9444 49.2062 16.1368 47.5429 18.67 46.64L21.5 45.65C22.88 49.39 27.1 52 32 52C36.9 52 41.12 49.39 42.5 45.65L45.33 46.64C47.8632 47.5429 50.0556 49.2062 51.6075 51.4024C53.1594 53.5987 53.995 56.2208 54 58.91V60Z" fill="#3D9AE2"/>
<path d="M26 24C27.1046 24 28 23.1046 28 22C28 20.8954 27.1046 20 26 20C24.8954 20 24 20.8954 24 22C24 23.1046 24.8954 24 26 24Z" fill="#3D9AE2"/>
<path d="M38 24C39.1046 24 40 23.1046 40 22C40 20.8954 39.1046 20 38 20C36.8954 20 36 20.8954 36 22C36 23.1046 36.8954 24 38 24Z" fill="#3D9AE2"/>
<path d="M37 28H35C35 28.7956 34.6839 29.5587 34.1213 30.1213C33.5587 30.6839 32.7956 31 32 31C31.2044 31 30.4413 30.6839 29.8787 30.1213C29.3161 29.5587 29 28.7956 29 28H27C27 29.3261 27.5268 30.5979 28.4645 31.5355C29.4021 32.4732 30.6739 33 32 33C33.3261 33 34.5979 32.4732 35.5355 31.5355C36.4732 30.5979 37 29.3261 37 28V28Z" fill="#3D9AE2"/>
<path d="M9 4H16V2H8C7.73478 2 7.48043 2.10536 7.29289 2.29289C7.10536 2.48043 7 2.73478 7 3V11H9V4Z" fill="#3D9AE2"/>
<path d="M55 11H57V3C57 2.73478 56.8946 2.48043 56.7071 2.29289C56.5196 2.10536 56.2652 2 56 2H48V4H55V11Z" fill="#3D9AE2"/>
<path d="M16 43V41H9V34H7V42C7 42.2652 7.10536 42.5196 7.29289 42.7071C7.48043 42.8946 7.73478 43 8 43H16Z" fill="#3D9AE2"/>
<path d="M55 41H48V43H56C56.2652 43 56.5196 42.8946 56.7071 42.7071C56.8946 42.5196 57 42.2652 57 42V34H55V41Z" fill="#3D9AE2"/>
<path d="M59 24C58.3817 24.0026 57.7794 24.1961 57.2753 24.5541C56.7712 24.9121 56.3901 25.4171 56.184 26H50V28H56.184C56.3682 28.5172 56.6911 28.9738 57.1172 29.3199C57.5434 29.666 58.0565 29.8883 58.6005 29.9625C59.1444 30.0367 59.6983 29.96 60.2016 29.7407C60.7049 29.5214 61.1383 29.168 61.4543 28.7191C61.7704 28.2702 61.9569 27.743 61.9936 27.1952C62.0304 26.6475 61.9158 26.1001 61.6625 25.6131C61.4091 25.126 61.0268 24.7179 60.5573 24.4334C60.0877 24.149 59.549 23.999 59 24V24ZM59 28C58.8022 28 58.6089 27.9413 58.4444 27.8315C58.28 27.7216 58.1518 27.5654 58.0761 27.3827C58.0004 27.2 57.9806 26.9989 58.0192 26.8049C58.0578 26.6109 58.153 26.4327 58.2929 26.2929C58.4327 26.153 58.6109 26.0578 58.8049 26.0192C58.9989 25.9806 59.2 26.0004 59.3827 26.0761C59.5654 26.1518 59.7216 26.28 59.8315 26.4444C59.9414 26.6089 60 26.8022 60 27C60 27.2652 59.8946 27.5196 59.7071 27.7071C59.5196 27.8946 59.2652 28 59 28Z" fill="#3D9AE2"/>
<path d="M7.81601 28H14V26H7.81601C7.58011 25.3328 7.11594 24.7704 6.50553 24.4124C5.89512 24.0543 5.17777 23.9235 4.48027 24.0432C3.78278 24.1629 3.15004 24.5253 2.6939 25.0663C2.23776 25.6074 1.98758 26.2923 1.98758 27C1.98758 27.7077 2.23776 28.3926 2.6939 28.9337C3.15004 29.4747 3.78278 29.8371 4.48027 29.9568C5.17777 30.0765 5.89512 29.9457 6.50553 29.5876C7.11594 29.2296 7.58011 28.6672 7.81601 28V28ZM5.00001 28C4.80223 28 4.60889 27.9413 4.44444 27.8315C4.27999 27.7216 4.15181 27.5654 4.07613 27.3827C4.00044 27.2 3.98064 26.9989 4.01922 26.8049C4.05781 26.6109 4.15305 26.4327 4.2929 26.2929C4.43275 26.153 4.61094 26.0578 4.80492 26.0192C4.9989 25.9806 5.19996 26.0004 5.38269 26.0761C5.56542 26.1518 5.72159 26.28 5.83148 26.4444C5.94136 26.6089 6.00001 26.8022 6.00001 27C6.00001 27.2652 5.89465 27.5196 5.70711 27.7071C5.51958 27.8946 5.26522 28 5.00001 28Z" fill="#3D9AE2"/>
</svg>
